Motion_pl09
version=1
nRows=9
nColumns=43
inDegrees=yes
endheader
time	pelvis_tilt	pelvis_list	pelvis_rotation	pelvis_tx	pelvis_ty	pelvis_tz	hip_flexion_r	hip_adduction_r	hip_rotation_r	knee_angle_r	ankle_angle_r	subtalar_angle_r	mtp_angle_r	hip_flexion_l	hip_adduction_l	hip_rotation_l	knee_angle_l	ankle_angle_l	subtalar_angle_l	mtp_angle_l	lumbar_extension	lumbar_bending	lumbar_rotation	neck_flexion	neck_lateral_bending	neck_rotation	arm_flex_r	arm_add_r	arm_rot_r	elbow_flex_r	pro_sup_r	wrist_flex_r	wrist_dev_r	hand_finger_flex_r	arm_flex_l	arm_add_l	arm_rot_l	elbow_flex_l	pro_sup_l	wrist_flex_l	wrist_dev_l	hand_finger_flex_l
      1.09500000	     -3.60741451	     -9.64939914	     92.39865709	      0.01680552	      1.63243251	      1.76683774	     95.82717985	    -13.62951341	     12.37299393	   -136.01371750	     27.75624364	     19.35599052	     27.84465197	     92.66869358	     -7.91730165	      6.08804694	   -134.10287324	     28.80496088	     18.34977259	     19.84498820	    -41.50571597	     -3.54609436	     -0.24066455	      9.54026934	      4.87192608	     -4.13118352	     67.90507012	    -70.25966580	    -38.23042053	    104.49378748	    146.71987019	     22.43277017	     27.92690653	    -13.99405347	     35.21670395	    -70.42991949	    -56.78973785	    109.05040668	    128.87641339	    -16.60304820	     25.17075731	     -0.38096917
      1.09750000	     -3.61913384	     -9.59841255	     92.38229758	      0.01675608	      1.63239949	      1.76673978	     95.81002076	    -13.62274968	     12.41880396	   -136.06248514	     27.74983600	     19.36176293	     27.84548477	     92.63056403	     -7.89605971	      6.09490693	   -134.15391519	     28.80466699	     18.33993202	     19.84702425	    -41.58787658	     -3.53661554	     -0.21781313	      9.54072389	      4.90476607	     -4.16815788	     67.94006285	    -70.16108652	    -38.32191295	    104.79972487	    146.79612915	     22.31133542	     27.99570027	    -14.09150561	     35.19301671	    -70.19477446	    -56.87967225	    109.37369637	    128.91087181	    -16.71807373	     25.12660659	     -0.40895876
      1.10000000	     -3.63310142	     -9.58223022	     92.40175949	      0.01691459	      1.63228300	      1.76688889	     95.81054936	    -13.60136124	     12.40188833	   -136.05593595	     27.74775417	     19.36835848	     27.84582846	     92.65893607	     -7.90141403	      6.10049778	   -134.14784186	     28.80842759	     18.33649965	     19.84739981	    -41.63946487	     -3.55213665	     -0.24936152	      9.53250056	      4.89617704	     -4.17029044	     67.94950989	    -70.17237861	    -38.31319508	    104.97474512	    146.80757022	     22.25863474	     27.97907296	    -14.12058415	     35.17359431	    -70.22127178	    -56.85069803	    109.58430598	    128.92794650	    -16.75350101	     25.07513266	     -0.41799632
      1.10250000	     -3.54573455	     -9.45108386	     92.42166434	      0.01680313	      1.63304007	      1.76646575	     95.49798203	    -13.64772289	     12.31534138	   -135.98439400	     27.72780478	     19.49185648	     27.85926390	     92.41325116	     -7.88095182	      6.13616429	   -134.11124949	     28.81480267	     18.20432761	     19.85728124	    -41.84153796	     -3.41450972	     -0.19175971	      9.60277211	      4.59137396	     -4.27391992	     66.95678301	    -69.93116625	    -39.02987501	    105.44545403	    147.32401619	     20.65339836	     27.99935709	    -15.23029988	     34.37899066	    -69.73279920	    -57.51150674	    109.96327016	    129.46930011	    -17.77531660	     24.50346532	     -0.72737809
      1.10500000	     -3.56230617	     -9.42936313	     92.43735707	      0.01695695	      1.63290886	      1.76664947	     95.54034305	    -13.63191655	     12.30206886	   -136.00622315	     27.73429002	     19.49179045	     27.85996882	     92.45406206	     -7.88793986	      6.15245450	   -134.10567671	     28.81765591	     18.20513719	     19.85764518	    -41.90805280	     -3.43266933	     -0.21981816	      9.59453715	      4.60903422	     -4.27544861	     66.97768588	    -69.93170048	    -39.02606625	    105.61636370	    147.31444518	     20.60411550	     27.96631837	    -15.25287249	     34.36386168	    -69.74603813	    -57.48516963	    110.15978229	    129.47772165	    -17.80529883	     24.45946274	     -0.72912985
      1.10750000	     -3.50654160	     -9.54271388	     92.47303485	      0.01692112	      1.63311287	      1.76629648	     95.53230216	    -13.67524060	     12.23101545	   -135.96870162	     27.73827806	     19.45392298	     27.86468171	     92.49911436	     -7.86650537	      6.18501917	   -134.07126339	     28.79941669	     18.24849394	     19.87227766	    -41.81886251	     -3.37924846	     -0.30689712	      9.61745494	      4.66623454	     -4.21289458	     65.79798140	    -69.41249649	    -40.05354875	    105.98546448	    147.18236830	     18.56608917	     27.43072628	    -16.45362892	     33.43264608	    -69.39240387	    -58.30141730	    110.58455244	    129.77805065	    -18.86109718	     23.89117058	     -0.74487696
      1.11000000	     -3.53096872	     -9.54609159	     92.46455020	      0.01690087	      1.63309983	      1.76627296	     95.56448441	    -13.66237675	     12.26773621	   -135.97988615	     27.73020343	     19.43585960	     27.86324129	     92.49208542	     -7.86666289	      6.16852180	   -134.07437628	     28.78554158	     18.27486446	     19.87361380	    -41.85142470	     -3.38796658	     -0.31219480	      9.63508925	      4.76793230	     -4.21954637	     65.78617306	    -69.23293652	    -40.19687554	    106.32220817	    147.13251246	     18.38815177	     27.42390034	    -16.54131913	     33.36681648	    -69.10661739	    -58.38466258	    110.95879643	    129.76435783	    -18.98924838	     23.84883806	     -0.70681833
      1.11250000	     -3.51200912	     -9.64649125	     92.51037214	      0.01707743	      1.63313505	      1.76608973	     95.60476325	    -13.67588440	     12.21848827	   -135.95809346	     27.70508330	     19.38659969	     27.85500545	     92.56940395	     -7.87497330	      6.17316478	   -134.04050114	     28.80930276	     18.28042276	     19.88595533	    -41.79758237	     -3.39780431	     -0.43476076	      9.66392211	      4.78316785	     -4.15412385	     64.53152679	    -68.97829460	    -41.10746759	    106.64699603	    146.94799437	     16.69914847	     27.18610823	    -17.46287529	     32.44788852	    -69.08289257	    -59.09514673	    111.27890294	    129.82880666	    -19.82476206	     23.46479940	     -0.40665606
      1.11500000	     -3.53370450	     -9.64900748	     92.50094288	      0.01706266	      1.63311908	      1.76608542	     95.63746979	    -13.66819559	     12.24364953	   -135.97488979	     27.70429084	     19.37338613	     27.85285826	     92.56346045	     -7.87870082	      6.15740398	   -134.03499675	     28.79073966	     18.30434392	     19.88584550	    -41.83978694	     -3.40362786	     -0.44522261	      9.69265134	      4.86835974	     -4.15769506	     64.54715344	    -68.78642764	    -41.23606320	    107.00300293	    146.90232470	     16.52930273	     27.15497295	    -17.53478887	     32.41002287	    -68.79338003	    -59.15724173	    111.64439464	    129.82416493	    -19.95946696	     23.41687810	     -0.36665942
